<svg width="104" height="104" viewBox="0 0 104 104" fill="none" xmlns="http://www.w3.org/2000/svg">
<path d="M59.6705 94.1688H22.7203C20.6768 94.1662 18.7178 93.3532 17.273 91.9081C15.8282 90.463 15.0156 88.5038 15.0134 86.4604V18.1955C15.0156 16.152 15.8282 14.1929 17.273 12.7478C18.7178 11.3027 20.6768 10.4897 22.7203 10.4871H55.2513V19.4528C55.2541 22.0127 56.2723 24.467 58.0824 26.2772C59.8926 28.0874 62.3469 29.1055 64.9069 29.1083H73.8789V49.6728C73.8789 50.0996 74.0484 50.5089 74.3502 50.8107C74.652 51.1125 75.0613 51.2821 75.4881 51.2821C75.9149 51.2821 76.3242 51.1125 76.626 50.8107C76.9278 50.5089 77.0974 50.0996 77.0974 49.6728V27.4968C77.0973 27.0698 76.9277 26.6603 76.6259 26.3582L58.0111 7.75829C57.7006 7.45568 57.2877 7.28087 56.8543 7.26855H22.7203C19.8235 7.27211 17.0464 8.42453 14.9982 10.473C12.95 12.5215 11.798 15.2987 11.7949 18.1955V86.4604C11.798 89.3572 12.95 92.1344 14.9982 94.1829C17.0464 96.2314 19.8235 97.3838 22.7203 97.3873H59.6705C60.0924 97.3799 60.4945 97.2071 60.7902 96.9061C61.086 96.6051 61.2517 96.2 61.2517 95.7781C61.2517 95.3561 61.086 94.951 60.7902 94.65C60.4945 94.349 60.0924 94.1762 59.6705 94.1688ZM58.4699 12.7671L71.603 25.8898H64.9069C63.2002 25.888 61.564 25.2092 60.3572 24.0024C59.1504 22.7956 58.4716 21.1594 58.4698 19.4528L58.4699 12.7671Z" fill="white"/>
<path d="M67.7797 39.454C67.7797 39.2426 67.7382 39.0334 67.6573 38.8381C67.5764 38.6428 67.4579 38.4654 67.3085 38.3159C67.159 38.1665 66.9816 38.048 66.7863 37.9671C66.5911 37.8863 66.3818 37.8447 66.1704 37.8447H22.7203C22.2935 37.8447 21.8842 38.0143 21.5824 38.3161C21.2806 38.6179 21.111 39.0272 21.111 39.454C21.111 39.8808 21.2806 40.2901 21.5824 40.5919C21.8842 40.8937 22.2935 41.0633 22.7203 41.0633H66.1704C66.3818 41.0633 66.5911 41.0217 66.7863 40.9409C66.9816 40.86 67.159 40.7415 67.3085 40.592C67.4579 40.4426 67.5764 40.2652 67.6573 40.0699C67.7382 39.8746 67.7797 39.6653 67.7797 39.454Z" fill="white"/>
<path d="M63.227 52.328C63.227 52.1167 63.1854 51.9074 63.1046 51.7121C63.0237 51.5168 62.9052 51.3394 62.7557 51.19C62.6063 51.0405 62.4289 50.922 62.2336 50.8411C62.0383 50.7603 61.829 50.7187 61.6177 50.7188H22.7203C22.2944 50.7201 21.8863 50.8902 21.5856 51.1919C21.2849 51.4935 21.1161 51.9021 21.1161 52.328C21.1161 52.7539 21.2849 53.1625 21.5856 53.4641C21.8863 53.7658 22.2944 53.9359 22.7203 53.9373H61.6176C61.8289 53.9374 62.0382 53.8958 62.2335 53.8149C62.4288 53.7341 62.6062 53.6156 62.7557 53.4661C62.9052 53.3167 63.0237 53.1392 63.1046 52.944C63.1854 52.7487 63.227 52.5394 63.227 52.328Z" fill="white"/>
<path d="M48.4685 65.202C48.4686 64.9907 48.427 64.7814 48.3461 64.5861C48.2653 64.3909 48.1467 64.2134 47.9973 64.064C47.8478 63.9145 47.6704 63.796 47.4752 63.7152C47.2799 63.6343 47.0706 63.5927 46.8593 63.5928H22.7203C22.2935 63.5928 21.8842 63.7623 21.5824 64.0641C21.2806 64.3659 21.111 64.7752 21.111 65.202C21.111 65.6288 21.2806 66.0382 21.5824 66.34C21.8842 66.6417 22.2935 66.8113 22.7203 66.8113H46.8593C47.0706 66.8113 47.2799 66.7698 47.4752 66.6889C47.6705 66.608 47.8479 66.4895 47.9973 66.3401C48.1468 66.1906 48.2653 66.0132 48.3461 65.8179C48.427 65.6227 48.4686 65.4134 48.4685 65.202Z" fill="white"/>
<path d="M42.8362 82.7164C42.8362 83.1431 43.0057 83.5525 43.3075 83.8542C43.6093 84.156 44.0186 84.3256 44.4454 84.3256C44.8722 84.3256 45.2815 84.156 45.5833 83.8542C45.8851 83.5525 46.0546 83.1431 46.0546 82.7164V80.9846C46.0547 80.404 45.9064 79.8331 45.6238 79.326C45.3412 78.8189 44.9336 78.3924 44.4398 78.0871C43.9461 77.7818 43.3825 77.6078 42.8025 77.5816C42.2226 77.5554 41.6455 77.6778 41.1262 77.9373L33.4524 81.7735C33.3705 81.8545 33.1466 81.7155 33.1805 81.6053C33.1729 80.9802 32.9945 80.3691 32.6646 79.8381C32.3346 79.307 31.8657 78.8764 31.3086 78.5928C30.7515 78.3091 30.1274 78.1833 29.5039 78.2288C28.8804 78.2744 28.2812 78.4897 27.7712 78.8513L21.7743 83.2122C21.5056 83.4153 21.307 83.6972 21.206 84.0186C21.1051 84.3399 21.1069 84.6848 21.2112 85.0051C21.3155 85.3253 21.5171 85.6051 21.7879 85.8054C22.0587 86.0057 22.3852 86.1166 22.722 86.1226C23.0616 86.123 23.3924 86.0151 23.6664 85.8147L29.6634 81.4536C29.7604 81.3517 29.9887 81.4725 29.962 81.6053C29.9679 82.1837 30.12 82.7513 30.4042 83.2551C30.6885 83.7589 31.0956 84.1827 31.5876 84.4868C32.0797 84.7909 32.6407 84.9656 33.2185 84.9946C33.7962 85.0235 34.3719 84.9058 34.8919 84.6523L42.5658 80.8164C42.5938 80.8012 42.6254 80.7939 42.6573 80.7953C42.6891 80.7967 42.7199 80.8067 42.7465 80.8242C42.9431 80.7823 42.7893 82.6314 42.8362 82.7164Z" fill="#FFE500"/>
<path d="M91.8181 63.4932C91.6639 62.675 91.6323 61.2597 90.5844 60.9151L72.4629 53.6671C72.0793 53.5146 71.652 53.5146 71.2685 53.6671L53.1486 60.915C52.1604 61.338 52.0647 62.5574 51.9133 63.4916C50.9144 70.2569 52.1493 77.1633 55.4307 83.1632C58.7122 89.163 63.861 93.9289 70.0961 96.7377C70.7955 97.0093 71.7636 97.698 72.5352 97.2412C79.0564 94.5772 84.4981 89.8068 87.9928 83.6905C91.4876 77.5741 92.8342 70.4639 91.8181 63.4932ZM72.2947 93.8115L71.8657 94.0079L71.4382 93.8115C65.7732 91.269 61.1066 86.9265 58.1635 81.4588C55.2204 75.9912 54.1657 69.7045 55.1633 63.5757L71.8657 56.8951L88.5697 63.5757C89.5671 69.7045 88.5123 75.9911 85.5693 81.4587C82.6262 86.9264 77.9597 91.2689 72.2947 93.8115Z" fill="#FFE500"/>
</svg>
