<svg width="104" height="104" viewBox="0 0 104 104" fill="none" xmlns="http://www.w3.org/2000/svg">
<path d="M28.0264 7.26855H13.1476C11.8675 7.26995 10.6403 7.77908 9.73513 8.68422C8.82998 9.58937 8.32086 10.8166 8.31946 12.0967V26.9755C8.32086 28.2556 8.82998 29.4829 9.73513 30.388C10.6403 31.2931 11.8675 31.8023 13.1476 31.8037H28.0264C29.3065 31.8023 30.5337 31.2931 31.4389 30.388C32.344 29.4829 32.8532 28.2556 32.8546 26.9755V12.0967C32.8532 10.8166 32.344 9.58937 31.4389 8.68422C30.5337 7.77908 29.3065 7.26995 28.0264 7.26855ZM29.6358 26.9755C29.6354 27.4022 29.4657 27.8113 29.164 28.1131C28.8622 28.4148 28.4531 28.5845 28.0264 28.5849H13.1476C12.7209 28.5845 12.3118 28.4148 12.0101 28.1131C11.7083 27.8113 11.5386 27.4022 11.5382 26.9755V12.0967C11.5386 11.67 11.7083 11.2609 12.0101 10.9592C12.3118 10.6574 12.7209 10.4877 13.1476 10.4873H28.0264C28.4531 10.4877 28.8622 10.6574 29.164 10.9592C29.4657 11.2609 29.6354 11.67 29.6358 12.0967V26.9755Z" fill="white"/>
<path d="M28.0264 40.0635H13.1476C11.8675 40.0649 10.6403 40.574 9.73513 41.4791C8.82998 42.3843 8.32086 43.6115 8.31946 44.8916V59.7705C8.32086 61.0505 8.82998 62.2778 9.73513 63.1829C10.6403 64.0881 11.8675 64.5972 13.1476 64.5986H28.0264C29.3065 64.5972 30.5337 64.0881 31.4389 63.1829C32.344 62.2778 32.8532 61.0505 32.8546 59.7705V44.8916C32.8532 43.6115 32.344 42.3843 31.4389 41.4791C30.5337 40.574 29.3065 40.0649 28.0264 40.0635ZM29.6358 59.7705C29.6354 60.1972 29.4657 60.6063 29.164 60.908C28.8622 61.2097 28.4531 61.3794 28.0264 61.3798H13.1476C12.7209 61.3794 12.3118 61.2097 12.0101 60.908C11.7083 60.6063 11.5386 60.1972 11.5382 59.7705V44.8916C11.5386 44.4649 11.7083 44.0558 12.0101 43.7541C12.3118 43.4523 12.7209 43.2827 13.1476 43.2822H28.0264C28.4531 43.2827 28.8622 43.4523 29.164 43.7541C29.4657 44.0558 29.6354 44.4649 29.6358 44.8916V59.7705Z" fill="#FFE500"/>
<path d="M28.0264 72.8584H13.1476C11.8675 72.8598 10.6403 73.3689 9.73513 74.2741C8.82998 75.1792 8.32086 76.4065 8.31946 77.6865V92.5654C8.32086 93.8455 8.82998 95.0727 9.73513 95.9778C10.6403 96.883 11.8675 97.3921 13.1476 97.3935H28.0264C29.3065 97.3921 30.5337 96.883 31.4389 95.9778C32.344 95.0727 32.8532 93.8455 32.8546 92.5654V77.6865C32.8532 76.4065 32.344 75.1792 31.4389 74.2741C30.5337 73.3689 29.3065 72.8598 28.0264 72.8584ZM29.6358 92.5654C29.6354 92.9921 29.4657 93.4012 29.164 93.7029C28.8622 94.0046 28.4531 94.1743 28.0264 94.1748H13.1476C12.7209 94.1743 12.3118 94.0046 12.0101 93.7029C11.7083 93.4012 11.5386 92.9921 11.5382 92.5654V77.6865C11.5386 77.2598 11.7083 76.8507 12.0101 76.549C12.3118 76.2473 12.7209 76.0776 13.1476 76.0771H28.0264C28.4531 76.0776 28.8622 76.2473 29.164 76.549C29.4657 76.8507 29.6354 77.2598 29.6358 77.6865V92.5654Z" fill="white"/>
<path d="M36.9834 11.3066H94.2073C94.6341 11.3066 95.0435 11.1371 95.3453 10.8353C95.6471 10.5334 95.8167 10.1241 95.8167 9.69727C95.8167 9.27043 95.6471 8.86108 95.3453 8.55927C95.0435 8.25745 94.6341 8.08789 94.2073 8.08789H36.9834C36.5566 8.08789 36.1472 8.25745 35.8454 8.55927C35.5436 8.86108 35.374 9.27043 35.374 9.69727C35.374 10.1241 35.5436 10.5334 35.8454 10.8353C36.1472 11.1371 36.5566 11.3066 36.9834 11.3066Z" fill="white"/>
<path d="M36.9834 21.1455H77.8181C78.2449 21.1455 78.6543 20.976 78.9561 20.6741C79.2579 20.3723 79.4274 19.963 79.4274 19.5361C79.4274 19.1093 79.2579 18.6999 78.9561 18.3981C78.6543 18.0963 78.2449 17.9268 77.8181 17.9268H36.9834C36.5566 17.9268 36.1472 18.0963 35.8454 18.3981C35.5436 18.6999 35.374 19.1093 35.374 19.5361C35.374 19.963 35.5436 20.3723 35.8454 20.6741C36.1472 20.976 36.5566 21.1455 36.9834 21.1455Z" fill="white"/>
<path d="M36.9834 30.9844H66.697C67.1239 30.9844 67.5332 30.8148 67.835 30.513C68.1368 30.2112 68.3064 29.8018 68.3064 29.375C68.3064 28.9482 68.1368 28.5388 67.835 28.237C67.5332 27.9352 67.1239 27.7656 66.697 27.7656H36.9834C36.5566 27.7656 36.1472 27.9352 35.8454 28.237C35.5436 28.5388 35.374 28.9482 35.374 29.375C35.374 29.8018 35.5436 30.2112 35.8454 30.513C36.1472 30.8148 36.5566 30.9844 36.9834 30.9844Z" fill="white"/>
<path d="M94.2073 40.8828H36.9834C36.5566 40.8828 36.1472 41.0524 35.8454 41.3542C35.5436 41.656 35.374 42.0654 35.374 42.4922C35.374 42.919 35.5436 43.3284 35.8454 43.6302C36.1472 43.932 36.5566 44.1016 36.9834 44.1016H94.2073C94.6341 44.1016 95.0435 43.932 95.3453 43.6302C95.6471 43.3284 95.8167 42.919 95.8167 42.4922C95.8167 42.0654 95.6471 41.656 95.3453 41.3542C95.0435 41.0524 94.6341 40.8828 94.2073 40.8828Z" fill="white"/>
<path d="M36.9834 53.9404H77.8181C78.2449 53.9404 78.6543 53.7709 78.9561 53.4691C79.2579 53.1672 79.4274 52.7579 79.4274 52.3311C79.4274 51.9042 79.2579 51.4949 78.9561 51.1931C78.6543 50.8912 78.2449 50.7217 77.8181 50.7217H36.9834C36.5566 50.7217 36.1472 50.8912 35.8454 51.1931C35.5436 51.4949 35.374 51.9042 35.374 52.3311C35.374 52.7579 35.5436 53.1672 35.8454 53.4691C36.1472 53.7709 36.5566 53.9404 36.9834 53.9404Z" fill="#FFE500"/>
<path d="M36.9834 63.7793H66.697C67.1239 63.7793 67.5332 63.6097 67.835 63.3079C68.1368 63.0061 68.3064 62.5968 68.3064 62.1699C68.3064 61.7431 68.1368 61.3337 67.835 61.0319C67.5332 60.7301 67.1239 60.5605 66.697 60.5605H36.9834C36.5566 60.5605 36.1472 60.7301 35.8454 61.0319C35.5436 61.3337 35.374 61.7431 35.374 62.1699C35.374 62.5968 35.5436 63.0061 35.8454 63.3079C36.1472 63.6097 36.5566 63.7793 36.9834 63.7793Z" fill="#FFE500"/>
<path d="M94.2073 73.6777H36.9834C36.5566 73.6777 36.1472 73.8473 35.8454 74.1491C35.5436 74.4509 35.374 74.8603 35.374 75.2871C35.374 75.7139 35.5436 76.1233 35.8454 76.4251C36.1472 76.7269 36.5566 76.8965 36.9834 76.8965H94.2073C94.6341 76.8965 95.0435 76.7269 95.3453 76.4251C95.6471 76.1233 95.8167 75.7139 95.8167 75.2871C95.8167 74.8603 95.6471 74.4509 95.3453 74.1491C95.0435 73.8473 94.6341 73.6777 94.2073 73.6777Z" fill="white"/>
<path d="M77.8181 83.5166H36.9834C36.5566 83.5166 36.1472 83.6862 35.8454 83.988C35.5436 84.2898 35.374 84.6991 35.374 85.126C35.374 85.5528 35.5436 85.9622 35.8454 86.264C36.1472 86.5658 36.5566 86.7354 36.9834 86.7354H77.8181C78.2449 86.7354 78.6543 86.5658 78.9561 86.264C79.2579 85.9622 79.4274 85.5528 79.4274 85.126C79.4274 84.6991 79.2579 84.2898 78.9561 83.988C78.6543 83.6862 78.2449 83.5166 77.8181 83.5166Z" fill="white"/>
<path d="M66.6766 93.3555H36.9834C36.5566 93.3555 36.1472 93.525 35.8454 93.8268C35.5436 94.1287 35.374 94.538 35.374 94.9648C35.374 95.3917 35.5436 95.801 35.8454 96.1028C36.1472 96.4047 36.5566 96.5742 36.9834 96.5742H66.6767C67.1035 96.5742 67.5129 96.4047 67.8147 96.1028C68.1165 95.801 68.2861 95.3917 68.2861 94.9648C68.2861 94.538 68.1165 94.1287 67.8147 93.8268C67.5129 93.525 67.1034 93.3555 66.6766 93.3555Z" fill="#FFE500"/>
</svg>
