<svg width="104" height="104" viewBox="0 0 104 104" fill="none" xmlns="http://www.w3.org/2000/svg">
<path d="M82.3562 33.9067C91.8341 49.6097 86.6967 71.5586 71.1868 81.4139C70.9049 81.6086 70.692 81.8878 70.5788 82.2111C70.4655 82.5345 70.4578 82.8855 70.5567 83.2136C70.6555 83.5417 70.8559 83.8299 71.129 84.0369C71.402 84.2439 71.7337 84.3589 72.0763 84.3655C89.8432 74.6506 95.5292 49.3818 85.1352 32.285C84.9155 31.9259 84.5638 31.6672 84.1556 31.5644C83.7474 31.4615 83.3151 31.5228 82.9515 31.735C82.5879 31.9472 82.322 32.2934 82.2107 32.6994C82.0994 33.1054 82.1516 33.5388 82.3562 33.9067Z" fill="white"/>
<path d="M30.0627 19.3383C21.8075 24.7925 15.9489 33.1955 13.6861 42.8275C11.4233 52.4596 12.9272 62.5923 17.8902 71.1518C17.9967 71.3343 18.1381 71.494 18.3063 71.6218C18.4745 71.7497 18.6663 71.8431 18.8706 71.8968C19.0749 71.9506 19.2879 71.9635 19.4972 71.9349C19.7065 71.9064 19.9082 71.8369 20.0906 71.7304C20.2731 71.6239 20.4328 71.4825 20.5607 71.3143C20.6885 71.1461 20.7819 70.9543 20.8356 70.75C20.8894 70.5457 20.9023 70.3328 20.8738 70.1234C20.8452 69.9141 20.7757 69.7124 20.6692 69.53C11.1913 53.8269 16.3287 31.8781 31.8386 22.0227C32.1856 21.7834 32.4249 21.4175 32.5051 21.0036C32.5853 20.5898 32.4999 20.161 32.2673 19.8094C32.0347 19.4578 31.6735 19.2115 31.2613 19.1234C30.849 19.0353 30.4187 19.1125 30.0627 19.3383Z" fill="white"/>
<path d="M94.9658 50.1094C94.7544 50.1093 94.5451 50.1509 94.3498 50.2318C94.1546 50.3126 93.9771 50.4312 93.8277 50.5806C93.6782 50.7301 93.5597 50.9075 93.4788 51.1028C93.398 51.2981 93.3564 51.5074 93.3564 51.7188C93.3702 57.9226 91.9915 64.0504 89.322 69.6506C89.1391 70.0361 89.1168 70.4785 89.2599 70.8804C89.4031 71.2824 89.7 71.6111 90.0854 71.7942C90.4708 71.9773 90.9132 71.9999 91.3153 71.857C91.7173 71.7141 92.0462 71.4173 92.2295 71.032C95.105 65.0006 96.5901 58.4006 96.5752 51.7188C96.5752 51.5074 96.5336 51.2981 96.4528 51.1028C96.3719 50.9075 96.2534 50.7301 96.1039 50.5806C95.9545 50.4312 95.777 50.3126 95.5817 50.2318C95.3865 50.1509 95.1772 50.1093 94.9658 50.1094Z" fill="#FFE500"/>
<path d="M81.1038 81.3064C77.2251 85.202 72.6132 88.2907 67.5342 90.3943C62.4553 92.4978 57.0101 93.5745 51.5128 93.5622C51.0914 93.5704 50.69 93.7436 50.3949 94.0445C50.0998 94.3454 49.9345 94.7501 49.9344 95.1715C49.9344 95.593 50.0997 95.9977 50.3948 96.2986C50.6899 96.5995 51.0913 96.7727 51.5127 96.781C57.4321 96.7944 63.2955 95.6353 68.7645 93.3704C74.2335 91.1056 79.1997 87.7799 83.3764 83.5853C83.5265 83.4362 83.6456 83.2589 83.727 83.0637C83.8085 82.8685 83.8506 82.6591 83.8511 82.4476C83.8515 82.2361 83.8103 82.0265 83.7297 81.831C83.6491 81.6354 83.5307 81.4576 83.3813 81.3079C83.232 81.1581 83.0545 81.0392 82.8592 80.9581C82.6638 80.8769 82.4544 80.8351 82.2429 80.835C82.0313 80.8348 81.8219 80.8764 81.6264 80.9573C81.431 81.0382 81.2534 81.1568 81.1038 81.3064Z" fill="#FFE500"/>
<path d="M89.3221 33.7859C89.4125 33.977 89.5398 34.1484 89.6966 34.2902C89.8533 34.4321 90.0365 34.5417 90.2357 34.6128C90.4348 34.6838 90.646 34.7149 90.8572 34.7043C91.0683 34.6937 91.2754 34.6416 91.4664 34.5509C91.6574 34.4603 91.8287 34.3329 91.9704 34.176C92.1122 34.0191 92.2216 33.8358 92.2925 33.6366C92.3634 33.4374 92.3943 33.2262 92.3835 33.015C92.3727 32.8039 92.3204 32.5969 92.2296 32.406C90.0219 27.7444 87.0276 23.498 83.3781 19.8532C83.0763 19.5514 82.667 19.3818 82.2402 19.3818C81.8134 19.3818 81.4041 19.5514 81.1023 19.8532C80.8005 20.1549 80.631 20.5643 80.631 20.991C80.631 21.4178 80.8005 21.8271 81.1023 22.1289C84.4907 25.5142 87.2712 29.4574 89.3221 33.7859Z" fill="white"/>
<path d="M10.7958 32.4059C7.92031 38.4373 6.43526 45.0373 6.45018 51.7192C6.45018 52.146 6.61974 52.5553 6.92156 52.8572C7.22338 53.159 7.63273 53.3285 8.05956 53.3285C8.48639 53.3285 8.89574 53.159 9.19756 52.8572C9.49938 52.5553 9.66893 52.146 9.66893 51.7192C9.65522 45.5154 11.0339 39.3876 13.7033 33.7875C13.8769 33.4033 13.8929 32.9663 13.7478 32.5704C13.6027 32.1746 13.3081 31.8514 12.9273 31.6705C12.5465 31.4895 12.1099 31.4652 11.7113 31.6027C11.3127 31.7402 10.984 32.0286 10.7958 32.4059Z" fill="#FFE500"/>
<path d="M20.7853 22.6008C20.9963 22.6013 21.2053 22.56 21.4003 22.4794C21.5953 22.3987 21.7725 22.2803 21.9215 22.1309C25.8002 18.2353 30.4122 15.1466 35.4911 13.043C40.57 10.9395 46.0153 9.8628 51.5126 9.87512C51.934 9.86691 52.3354 9.69376 52.6305 9.39284C52.9256 9.09193 53.0909 8.68727 53.091 8.26579C53.091 7.84431 52.9257 7.43964 52.6306 7.13871C52.3355 6.83777 51.9341 6.66459 51.5127 6.65637C45.5933 6.64288 39.7299 7.80202 34.2609 10.0669C28.7919 12.3317 23.8258 15.6574 19.649 19.852C19.4287 20.0788 19.2796 20.3652 19.22 20.6757C19.1605 20.9863 19.1931 21.3075 19.3139 21.5998C19.4347 21.892 19.6384 22.1425 19.8998 22.3204C20.1613 22.4983 20.4691 22.5958 20.7853 22.6008Z" fill="white"/>
<path d="M13.7033 69.6509C13.6128 69.4599 13.4856 69.2885 13.3288 69.1466C13.1721 69.0047 12.9889 68.8951 12.7897 68.824C12.5906 68.753 12.3794 68.7219 12.1682 68.7325C11.957 68.7431 11.75 68.7952 11.559 68.8859C11.368 68.9765 11.1967 69.104 11.055 69.2608C10.9132 69.4177 10.8038 69.601 10.7329 69.8002C10.662 69.9994 10.6311 70.2106 10.6419 70.4218C10.6527 70.6329 10.705 70.8399 10.7958 71.0309C13.0035 75.6924 15.9978 79.9388 19.6473 83.5837C19.7968 83.7331 19.9742 83.8516 20.1694 83.9325C20.3646 84.0134 20.5739 84.055 20.7852 84.055C20.9965 84.055 21.2058 84.0134 21.401 83.9325C21.5963 83.8516 21.7737 83.7331 21.9231 83.5837C22.0725 83.4342 22.1911 83.2568 22.2719 83.0616C22.3528 82.8664 22.3944 82.6571 22.3944 82.4458C22.3944 82.2345 22.3528 82.0252 22.2719 81.83C22.1911 81.6347 22.0725 81.4573 21.9231 81.3079C18.5347 77.9226 15.7542 73.9794 13.7033 69.6509Z" fill="white"/>
<path d="M53.4473 75.9364C60.7925 72.6316 66.8101 66.9484 70.529 59.8038C74.248 52.6593 75.4513 44.4702 73.9448 36.5578C73.9115 36.2637 73.7998 35.984 73.6215 35.7477C73.4432 35.5115 73.2048 35.3275 72.9311 35.2148L52.1097 26.8858C51.7262 26.7334 51.2989 26.7334 50.9153 26.8858L30.094 35.2148C29.8196 35.328 29.5807 35.5128 29.4021 35.7498C29.2235 35.9869 29.1118 36.2676 29.0787 36.5625C27.574 44.4743 28.7783 52.6623 32.4974 59.8058C36.2164 66.9493 42.2335 72.6317 49.5778 75.9364C49.9973 76.0851 51.0362 76.7186 51.5125 76.6617C51.9821 76.7293 53.0183 76.0902 53.4473 75.9364ZM32.0005 38.4964C32.0335 38.2898 32.0681 38.0831 32.1058 37.8772L51.5126 30.114L70.9194 37.8772C72.1193 45.0996 70.8586 52.5158 67.3394 58.936C63.8202 65.3562 58.2466 70.4083 51.5126 73.2818C44.8781 70.4488 39.3669 65.501 35.8376 59.2092C32.3084 52.9174 30.9593 45.6349 32.0005 38.4964Z" fill="#FFE500"/>
<path d="M54.4846 47.3064L50.513 52.7097L48.3819 50.5785C48.0781 50.2864 47.6719 50.1251 47.2505 50.1292C46.8291 50.1333 46.4261 50.3025 46.1281 50.6005C45.8301 50.8985 45.6609 51.3015 45.6568 51.7229C45.6527 52.1443 45.8141 52.5505 46.1062 52.8543L49.5622 56.3112C49.7269 56.4736 49.9246 56.5989 50.1418 56.6785C50.359 56.7581 50.5908 56.7902 50.8215 56.7727C51.0521 56.7552 51.2764 56.6884 51.4791 56.577C51.6818 56.4655 51.8583 56.3119 51.9967 56.1264L57.0778 49.2128C57.3299 48.8689 57.4351 48.439 57.3704 48.0176C57.3058 47.5961 57.0765 47.2176 56.733 46.965C56.3894 46.7125 55.9597 46.6066 55.5381 46.6706C55.1166 46.7346 54.7377 46.9632 54.4846 47.3064Z" fill="#FFE500"/>
</svg>
